<?xml version="1.0" encoding="UTF-8" standalone="no"?>
<!-- Created with Inkscape (http://www.inkscape.org/) -->

<svg
   version="1.1"
   id="svg1"
   width="1254"
   height="1254"
   viewBox="0 0 1254 1254"
   sodipodi:docname="pt700favicon.svg"
   inkscape:version="1.4.3 (0d15f75042, 2025-12-25)"
   xml:space="preserve"
   inkscape:export-filename="pt700favicon.png"
   inkscape:export-xdpi="96"
   inkscape:export-ydpi="96"
   xmlns:inkscape="http://www.inkscape.org/namespaces/inkscape"
   xmlns:sodipodi="http://sodipodi.sourceforge.net/DTD/sodipodi-0.dtd"
   xmlns="http://www.w3.org/2000/svg"
   xmlns:svg="http://www.w3.org/2000/svg"><defs
     id="defs1" /><sodipodi:namedview
     id="namedview1"
     pagecolor="#ffffff"
     bordercolor="#000000"
     borderopacity="0.25"
     inkscape:showpageshadow="2"
     inkscape:pageopacity="0.0"
     inkscape:pagecheckerboard="0"
     inkscape:deskcolor="#d1d1d1"
     inkscape:zoom="0.53136477"
     inkscape:cx="797.94527"
     inkscape:cy="669.03194"
     inkscape:window-width="1707"
     inkscape:window-height="1039"
     inkscape:window-x="0"
     inkscape:window-y="0"
     inkscape:window-maximized="1"
     inkscape:current-layer="g1" /><g
     inkscape:groupmode="layer"
     inkscape:label="Image"
     id="g1"><path
       id="rect13"
       style="opacity:0.72;fill:#ff0000;stroke:#916f6f;stroke-width:0.0755906;stroke-linejoin:round;stroke-miterlimit:3.6;paint-order:stroke fill markers"
       d="m 481.29642,913.68347 h 298.41797 v 221.86423 c -96.64713,56.2689 -196.11979,56.2689 -298.41797,0 z"
       sodipodi:nodetypes="ccccc" /><path
       id="rect12"
       style="opacity:0.72;fill:#ffffff;stroke:#916f6f;stroke-width:0.076617;stroke-linejoin:round;stroke-miterlimit:3.6;paint-order:stroke fill markers"
       d="m 263.29504,549.35571 h 735.42334 l 21.87392,343.60873 1.6129,86.37796 -249.3678,6.08324 -3.33125,-73.36005 -269.63889,2.84328 -9.71073,71.95036 -249.02507,-11.53803 0.19186,-94.52274 z"
       sodipodi:nodetypes="ccccccccccc" /><g
       id="g12"
       transform="matrix(0.97884299,0,0,0.97884299,17.927926,194.12026)"><path
         style="fill:#008000"
         d="m 596.36927,1031.4985 c -42.3147,-5.368 -75.99734,-19.6722 -98.79148,-41.95436 L 489.86031,982 h -82.20639 c -49.32643,0 -85.4259,-0.40369 -90.25581,-1.00931 -38.65933,-4.84747 -70.5825,-30.34105 -83.37385,-66.58167 C 228.04732,897.47506 228,896.7091 228,816.88953 228,776.80029 228.37009,744 228.82242,744 c 0.45233,0 3.41988,1.40685 6.59456,3.12633 11.50908,6.23358 11.44902,6.2262 55.58302,6.82457 l 40.5,0.5491 0.55359,11.5 c 0.63545,13.20057 2.35549,18.14674 8.47615,24.37419 2.09426,2.1308 6.09432,4.9389 8.88901,6.24023 l 5.08125,2.36604 52.25,0.01 c 41.12009,0.008 52.25743,-0.2565 52.28489,-1.24023 0.0192,-0.6875 0.68533,-4.85 1.48032,-9.25 0.79499,-4.4 1.45429,-8.1125 1.46512,-8.25 0.0108,-0.1375 -22.52482,-0.25 -50.0792,-0.25 -44.29732,0 -50.49783,-0.18932 -53.54405,-1.63484 -6.06371,-2.87742 -6.35751,-4.38335 -6.35334,-32.5655 0.003,-23.61172 0.13838,-25.52051 2.02189,-28.60984 C 358.09988,710.50726 336.39119,711 626.73348,711 c 253.57556,0 263.92975,0.0708 267.20486,1.82727 6.78985,3.64144 7.15519,5.48388 6.84117,34.50113 L 900.5,773.1568 896.76469,776.5784 893.02937,780 H 842.01469 C 813.95661,780 791,780.2513 791,780.55845 c 0,1.03059 2.06755,14.91549 2.56621,17.23369 l 0.49305,2.29215 51.72037,-0.29215 c 51.54994,-0.29118 51.73685,-0.29972 56.72037,-2.59149 6.36303,-2.92617 11.96664,-8.32902 15.24692,-14.70065 2.16619,-4.20764 2.66754,-6.82243 3.1636,-16.5 L 921.5,754.5 963,753.97349 c 45.4231,-0.57628 44.0003,-0.39653 55.7842,-7.04699 2.9157,-1.64548 5.732,-2.72553 6.2585,-2.40012 1.3039,0.80584 1.2384,128.59058 -0.073,143.47362 -1.3075,14.83283 -3.8393,23.90868 -10.4608,37.5 -12.5892,25.84056 -33.72155,44.00595 -61.0084,52.44289 -15.59537,4.82201 -20.39845,5.04492 -108.83767,5.05121 l -82.83767,0.006 -8.16233,7.53923 c -22.67697,20.94587 -48.96343,33.27227 -84.42831,39.59077 -15.41761,2.7468 -55.99265,3.5089 -72.86475,1.3685 z m 60.50239,-28.0481 c 5.84559,-0.8522 15.57834,-2.8312 21.62834,-4.39758 47.21065,-12.22341 78.47675,-45.70117 89.94221,-96.3044 C 775.215,872.85645 774.4699,822.50643 766.40375,765 c -1.22139,-8.7077 -2.11558,-12.04632 -3.68271,-13.75 L 760.65137,749 h -60.62568 c -45.81998,0 -60.91875,0.29306 -61.82569,1.2 -0.91412,0.91412 -1.20089,21.10421 -1.20374,84.75 -0.004,82.03706 -0.0403,83.60994 -2.02189,86.86018 -1.13434,1.86053 -3.65083,3.99574 -5.74627,4.87564 -5.03479,2.11415 -10.69611,0.25335 -13.9455,-4.5837 L 613,918.70423 v -84.87608 -84.87609 l -56.91999,0.27397 -56.91998,0.27397 -2.4914,2.34106 c -6.87947,6.46436 -14.37551,45.51258 -16.7722,87.36942 -3.27032,57.11449 7.73624,98.00337 33.86965,125.82422 20.36331,21.67818 45.448,33.58905 80.91745,38.4217 14.08884,1.9196 49.00381,1.9163 62.18813,-0.01 z M 922.35898,736.23469 c -0.71502,-0.46039 -1.27505,-5.21495 -1.5,-12.73469 -0.32009,-10.69982 -0.66128,-12.61559 -3.14907,-17.6816 -3.02495,-6.15988 -7.36572,-10.52379 -13.98771,-14.06226 L 899.5,689.5 628.53078,689.24277 C 324.79131,688.95443 351.35426,688.27963 342.19244,696.51689 334.33768,703.57899 332.5958,708.10493 332,723 l -0.5,12.5 H 291 250.5 l -5.54563,-2.60111 c -7.33329,-3.4396 -12.85389,-8.41762 -15.18881,-13.69604 -1.84045,-4.16058 -1.89846,-8.90085 -1.82545,-149.16351 0.0636,-122.13287 0.30402,-146.17459 1.53221,-153.20285 2.58434,-14.78887 7.7881,-27.25697 13.25788,-31.76562 6.24581,-5.14833 9.70759,-5.57087 45.64125,-5.57087 h 32.87145 l 2.5899,3.5 c 1.42445,1.925 4.71649,5.61166 7.31567,8.19258 8.62228,8.56175 -19.94918,7.80812 295.78303,7.80184 201.75674,-0.004 281.68669,-0.31601 284.54924,-1.11071 5.74682,-1.59544 11.53522,-5.92347 16.46068,-12.30777 L 932.24322,380 h 34.22917 c 22.93064,0 35.35121,0.37567 37.62841,1.1381 8.3798,2.80568 12.4559,8.34933 17.1948,23.38556 4.8252,15.31003 4.8174,15.0178 4.5016,167.97634 -0.3344,162.01654 0.5114,146.27375 -8.2948,154.39098 -5.7819,5.32958 -11.2362,7.79042 -20.11032,9.07316 -7.9095,1.14331 -73.31139,1.37913 -75.0331,0.27055 z M 849.5,632.55382 c 17.56557,-5.92764 30.22002,-17.09451 38.88115,-34.31052 5.41597,-10.7655 6.92699,-18.4757 6.31893,-32.2433 -0.5505,-12.46421 -2.11184,-18.27524 -7.86583,-29.2753 -4.64668,-8.88317 -18.24059,-22.2393 -27.53377,-27.05214 -33.7015,-17.45368 -74.45141,-3.69843 -91.32623,30.82744 -8.92793,18.26653 -8.99914,38.54881 -0.19971,56.88493 8.85578,18.45355 24.34054,31.20682 44.54789,36.68968 10.41339,2.82547 26.21341,2.17915 37.17757,-1.52079 z m -34.58818,-14.99835 c -11.45593,-3.16022 -23.47603,-12.08055 -29.90329,-22.19176 -5.30457,-8.34502 -7.33382,-16.94436 -6.80489,-28.83713 0.41186,-9.26046 0.81952,-11.04293 4.11058,-17.97297 8.73133,-18.38569 26.19267,-29.57105 46.11728,-29.54174 14.26213,0.021 26.29174,4.93866 35.98678,14.71132 10.4417,10.52531 15.1229,23.00177 14.33721,38.21195 -0.56617,10.96042 -2.11249,15.58148 -8.45396,25.26404 -6.67708,10.19498 -17.8524,18.07506 -29.41331,20.74028 -5.96781,1.3758 -20.36879,1.16293 -25.9764,-0.38399 z m 43.06548,-21.15393 c 7.09457,-6.40951 7.10787,-15.23765 0.0285,-18.89855 -3.9192,-2.02669 -7.93876,-1.27171 -12.16572,2.28504 -6.49486,5.46506 -7.21802,13.03327 -1.68983,17.68494 4.44867,3.7433 8.8776,3.40012 13.82706,-1.07143 z m -42.12059,-18.76912 c 3.86919,-9.33512 9.51185,-14.43564 20.60504,-18.62533 l 2.96174,-1.1186 -7.14325,-3.45526 c -8.17161,-3.95268 -12.92135,-8.86151 -16.43914,-16.98973 -1.2876,-2.97515 -2.5661,-5.40495 -2.8411,-5.39955 -0.275,0.005 -1.77937,2.87503 -3.34304,6.37695 -3.40571,7.62724 -7.13519,11.44928 -15.56909,15.95544 l -6.31401,3.37352 5.48308,2.51023 c 7.9099,3.62127 12.96286,8.62812 16.34252,16.19339 1.5953,3.57101 3.15523,6.50485 3.46653,6.51964 0.31129,0.0148 1.56711,-2.38853 2.79072,-5.3407 z m -160.68893,34.55216 c 3.50096,-3.26566 4.15265,-4.52644 4.52281,-8.75 0.56871,-6.48902 -1.94885,-11.11668 -7.70321,-14.15966 C 647.91775,587.12285 646.58154,587 627.24385,587 c -22.74049,0 -25.27446,0.55144 -29.8003,6.48512 -4.66737,6.11924 -2.71079,16.55197 3.855,20.55536 2.93276,1.78821 5.15605,1.95236 26.49017,1.95578 L 651.07745,616 Z M 396.60969,593.89695 c 1.32721,-1.24685 3.47487,-4.5862 4.77259,-7.42077 2.92544,-6.39002 9.39481,-12.72562 16.61772,-16.27412 4.77231,-2.34456 6.69076,-2.69614 14.5,-2.65734 7.02455,0.0349 10.03595,0.51812 13.7197,2.20148 6.9774,3.18844 13.48921,9.7257 17.37605,17.44394 3.91693,7.77798 7.53623,10.37468 13.18307,9.45833 3.89918,-0.63275 6.75704,-2.85025 8.82356,-6.84645 2.12932,-4.11766 1.71966,-6.88959 -2.16614,-14.65683 -8.97977,-17.94951 -26.73434,-29.58453 -47.14436,-30.8949 -10.76969,-0.69144 -18.83095,0.95008 -29.29188,5.96472 -10.96145,5.25457 -21.17273,15.10458 -25.84227,24.92796 -3.49161,7.34536 -3.92013,11.48203 -1.64516,15.88134 3.16497,6.12037 12.05085,7.61336 17.09712,2.87264 z M 343.7855,379.93977 c -0.94298,-0.54968 -3.81448,-3.72849 -6.38111,-7.06403 -8.0195,-10.42193 -5.32676,-9.8677 -47.96326,-9.872 -28.09683,-0.003 -37.47297,-0.30654 -38.77121,-1.25583 -1.58556,-1.15939 -1.41858,-2.0059 2.25541,-11.43335 15.80639,-40.55917 27.10267,-60.39098 44.05112,-77.33641 17.68575,-17.68261 36.64634,-28.17112 62.69933,-34.68366 6.32579,-1.58128 25.52192,-1.72944 262.82422,-2.02858 225.63638,-0.28443 257.24538,-0.14132 266.5,1.20663 34.75336,5.06187 64.69338,23.71971 83.55765,52.07094 6.62169,9.9518 17.30611,31.98237 24.90341,51.34923 6.58554,16.78774 7.39654,19.95062 5.43414,21.19319 -0.7673,0.48591 -18.0452,0.89205 -38.3952,0.90253 -42.71723,0.022 -39.84902,-0.59129 -48.45587,10.36073 -2.78562,3.54463 -5.77192,6.71614 -6.63623,7.04781 -2.82347,1.08346 -563.75721,0.63005 -565.6224,-0.4572 z"
         id="path1"
         sodipodi:nodetypes="sscssssssscssscsssssscsssscccssscsssscssscssscssssccssscsscssscccccssssccsssscssscccsssssscssssscsssssssssssssssssssssssssssssssssscsscsscssssssssssscssssssssssssssssscsssssssssssss" /><g
         inkscape:label="Layer 1"
         id="layer1"
         transform="rotate(-24.498798,-491.08177,-105.22803)"
         style="fill:#008000"><path
           style="color:#000000;display:inline;overflow:visible;visibility:visible;fill:#008000;fill-opacity:1;fill-rule:nonzero;stroke:none;stroke-width:0.531496;marker:none;enable-background:accumulate"
           d="m 362.46655,399.37379 c -80.4519,0.30312 -160.7693,30.42522 -222.3125,90.28125 l 55.9062,55.28125 c 92.2564,-89.61065 240.7455,-90.14152 333.6562,-1.15625 l 55.7813,-55.81255 C 523.48725,428.577 442.91835,399.07062 362.46655,399.37374 Z m -166.4063,145.5625 -0.125,0.0937 z"
           id="path4391"
           inkscape:connector-curvature="0"
           sodipodi:nodetypes="cccccccccc" /><path
           style="color:#000000;display:inline;overflow:visible;visibility:visible;fill:#008000;fill-opacity:1;fill-rule:nonzero;stroke:none;stroke-width:0.531496;marker:none;enable-background:accumulate"
           d="m 362.37275,281.3738 c -110.9452,0.41801 -221.724,41.957 -306.593707,124.49999 l 55.468707,54.84375 c 138.9415,-134.55514 362.2624,-135.23852 502.0313,-1.375 l 56.6562,-55.78125 C 584.42125,321.6603 473.31795,280.95579 362.37275,281.3738 Z m -251.125,179.34374 -0.5625,0.53125 z"
           id="path4395"
           inkscape:connector-curvature="0"
           sodipodi:nodetypes="sccccsccc" /><path
           style="color:#000000;display:inline;overflow:visible;visibility:visible;fill:#008000;fill-opacity:1;fill-rule:nonzero;stroke:none;stroke-width:0.531496;marker:none;enable-background:accumulate"
           d="m 362.34155,516.87379 c -50.088,0.18872 -100.1218,18.95343 -138.4375,56.21875 l 53.4375,52.8125 c 47.1813,-45.82127 123.1117,-46.06831 170.625,-0.5625 l 53.2192,-53.3125 c -38.6066,-36.97548 -88.7558,-55.34497 -138.8437,-55.15625 z m -85,109.03125 -0.063,0.0625 z"
           id="path4381"
           inkscape:connector-curvature="0"
           sodipodi:nodetypes="cccccccccc" /><path
           sodipodi:type="arc"
           style="color:#000000;display:inline;overflow:visible;visibility:visible;fill:#008000;fill-opacity:1;fill-rule:nonzero;stroke:none;stroke-width:0.531496;marker:none;enable-background:accumulate"
           id="path4411"
           sodipodi:cx="836.5"
           sodipodi:cy="578.86218"
           sodipodi:rx="78.5"
           sodipodi:ry="78.5"
           d="m 780.99212,634.37006 a 78.5,78.5 0 0 1 -0.0574,-110.95833 78.5,78.5 0 0 1 110.95822,-0.17211 78.5,78.5 0 0 1 0.28684,110.95798 78.5,78.5 0 0 1 -110.95762,0.40159 L 836.5,578.86218 Z"
           sodipodi:start="2.3561945"
           sodipodi:end="2.3520582"
           transform="translate(-473.54519,131.70585)"
           sodipodi:arc-type="slice" /></g></g></g></svg>
