<?xml version="1.0" encoding="UTF-8" standalone="no"?>
<!-- Created with Inkscape (http://www.inkscape.org/) -->

<svg
   version="1.1"
   id="svg1"
   width="1254"
   height="1254"
   viewBox="0 0 1254 1254"
   sodipodi:docname="pt700favicon.svg"
   inkscape:version="1.4.3 (0d15f75042, 2025-12-25)"
   xml:space="preserve"
   inkscape:export-filename="pt700favicon.png"
   inkscape:export-xdpi="96"
   inkscape:export-ydpi="96"
   xmlns:inkscape="http://www.inkscape.org/namespaces/inkscape"
   xmlns:sodipodi="http://sodipodi.sourceforge.net/DTD/sodipodi-0.dtd"
   xmlns="http://www.w3.org/2000/svg"
   xmlns:svg="http://www.w3.org/2000/svg"><defs
     id="defs1" /><sodipodi:namedview
     id="namedview1"
     pagecolor="#ffffff"
     bordercolor="#000000"
     borderopacity="0.25"
     inkscape:showpageshadow="2"
     inkscape:pageopacity="0.0"
     inkscape:pagecheckerboard="0"
     inkscape:deskcolor="#d1d1d1"
     inkscape:zoom="0.37573163"
     inkscape:cx="779.81191"
     inkscape:cy="841.02581"
     inkscape:window-width="1600"
     inkscape:window-height="872"
     inkscape:window-x="0"
     inkscape:window-y="0"
     inkscape:window-maximized="1"
     inkscape:current-layer="g1"
     showgrid="false"
     showguides="true"><sodipodi:guide
       position="1401.1458,1147.3833"
       orientation="0,-1"
       id="guide1"
       inkscape:locked="false" /></sodipodi:namedview><g
     inkscape:groupmode="layer"
     inkscape:label="Image"
     id="g1"><g
       id="g2"
       transform="translate(0,2)"><path
         id="rect12"
         style="opacity:1;fill:#ffffff;stroke:#916f6f;stroke-width:0.076617;stroke-linejoin:round;stroke-miterlimit:3.6;paint-order:stroke fill markers"
         d="m 263.29504,549.35571 h 735.42334 l 21.87392,343.60873 1.6129,86.37796 -249.3678,6.08324 -3.33125,-73.36005 -269.63889,2.84328 -9.71073,71.95036 -249.02507,-11.53803 0.19186,-94.52274 z"
         sodipodi:nodetypes="ccccccccccc" /><path
         style="fill:#008000;stroke-width:1.06451"
         d="m 273.25017,1118.3561 c -45.08107,-1.2588 -81.71206,-29.6991 -96.52037,-65.173 -6.91939,-16.5757 -6.97417,-17.3254 -6.97417,-95.45625 0,-39.24107 0.42844,-71.34741 0.9521,-71.34741 0.52365,0 3.95912,1.37709 7.6344,3.06019 13.32385,6.1017 13.25432,6.09447 64.34744,6.68018 l 46.88611,0.53749 0.64087,11.25669 c 0.73565,12.92129 2.72691,17.76281 9.81268,23.85851 2.4245,2.08571 7.05529,4.8344 10.29065,6.1082 l 5.88248,2.31598 60.48885,0.01 c 47.60398,0.008 60.49747,-0.25107 60.52926,-1.21399 0.0222,-0.67295 0.7934,-4.74739 1.71374,-9.0543 0.92035,-4.30691 1.68361,-7.94086 1.69614,-8.07545 0.0125,-0.13459 -26.07657,-0.24471 -57.97576,-0.24471 -51.2822,0 -58.46042,-0.18532 -61.98697,-1.60025 -7.01985,-2.81655 -7.35997,-4.29062 -7.35514,-31.87652 0.004,-23.11216 0.16019,-24.98057 2.3407,-28.00454 4.71668,-6.5414 -20.41507,-6.05908 315.70887,-6.05908 293.55978,0 305.54664,0.0693 309.33816,1.78861 7.86049,3.56439 8.28344,5.36785 7.9199,33.77119 l -0.32358,25.28194 -4.3243,3.34921 -4.32432,3.34921 h -59.05876 c -32.48231,0 -59.05876,0.24599 -59.05876,0.54664 0,1.00878 2.39357,14.59992 2.97085,16.86907 l 0.5708,2.24366 59.87572,-0.28597 c 59.67842,-0.28502 59.8948,-0.29338 65.66413,-2.53666 7.36636,-2.86426 13.85357,-8.1528 17.65109,-14.38963 2.50775,-4.11862 3.08815,-6.67809 3.66243,-16.15091 l 0.68243,-11.25669 48.04376,-0.51537 c 52.5855,-0.56409 50.9384,-0.38815 64.5804,-6.8979 3.3754,-1.61067 6.6358,-2.66787 7.2453,-2.34934 1.5095,0.78879 1.4337,125.87 -0.085,140.4381 -1.5136,14.519 -4.4446,23.4029 -12.1102,36.7066 -14.5743,25.2939 -37.5903,50.2046 -70.6284,51.3334 -264.7929,9.0475 -488.02498,9.919 -736.40402,2.9833 z m 700.3521,-239.57767 c -0.82776,-0.45065 -1.47611,-5.10462 -1.73653,-12.46527 -0.37055,-10.47344 -0.76555,-12.34868 -3.64561,-17.30751 -3.50193,-6.02955 -8.52717,-10.30114 -16.19332,-13.76474 l -4.88796,-2.20841 -313.6961,-0.25179 c -351.63361,-0.28224 -320.88216,-0.94276 -331.48863,7.12023 -9.09332,6.91268 -11.10986,11.34287 -11.7996,25.9228 l -0.57884,12.23554 h -46.88611 -46.88612 l -6.42007,-2.54608 c -8.48961,-3.36683 -14.88071,-8.23953 -17.5838,-13.40627 -2.13066,-4.07256 -2.19781,-8.71254 -2.1133,-146.00766 0.0737,-119.5489 0.35197,-143.08197 1.77382,-149.96153 2.99184,-14.47599 9.01614,-26.6803 15.3484,-31.09356 7.23067,-5.0394 11.23831,-5.45301 52.83804,-5.45301 h 38.05468 l 2.99827,3.42596 c 1.64907,1.88427 5.46021,5.49293 8.46922,8.01924 9.98186,8.38061 -23.0948,7.64293 342.42259,7.63678 233.57007,-0.004 326.10351,-0.30932 329.41743,-1.08721 6.65298,-1.56168 13.35411,-5.79815 19.05623,-12.04737 l 4.98011,-5.45797 h 39.62653 c 26.5463,0 40.9254,0.36772 43.5617,1.11402 9.7012,2.74632 14.4199,8.17268 19.9061,22.89079 5.586,14.98611 5.5769,14.70007 5.2114,164.42246 -0.3871,158.58876 0.592,143.17904 -9.6028,151.12453 -6.6936,5.21682 -13.0079,7.6256 -23.2813,8.8812 -9.1567,1.11912 -84.87124,1.34995 -86.86443,0.26483 z m -84.3475,-101.4873 c 20.33533,-5.80223 34.98516,-16.73284 45.01199,-33.58461 6.26997,-10.53773 8.01924,-18.08481 7.31531,-31.56113 -0.63731,-12.2005 -2.44484,-17.88859 -9.10614,-28.65592 -5.37937,-8.69523 -21.11679,-21.76878 -31.87533,-26.4798 -39.01561,-17.08441 -86.19103,-3.62018 -105.7267,30.17523 -10.3357,17.88006 -10.41814,37.73323 -0.2312,55.68141 10.25217,18.06313 28.1786,30.54658 51.57227,35.91344 12.0554,2.76569 30.34678,2.13304 43.0398,-1.48862 z M 849.21266,762.6101 c -13.26232,-3.09336 -27.17777,-11.82496 -34.61849,-21.72225 -6.141,-8.16846 -8.49023,-16.58586 -7.8779,-28.22702 0.47681,-9.06453 0.94876,-10.80929 4.75875,-17.59271 10.1081,-17.99671 30.32278,-28.94542 53.38913,-28.91673 16.51101,0.0206 30.43747,4.83417 41.66123,14.40007 12.08816,10.30263 17.5075,22.51512 16.59793,37.4035 -0.65544,10.72853 -2.44559,15.25182 -9.78699,24.72953 -7.72995,9.97929 -20.6674,17.69265 -34.05125,20.30148 -6.90883,1.34669 -23.58058,1.13832 -30.07241,-0.37587 z m 49.85612,-20.70637 c 8.21325,-6.27391 8.22865,-14.91527 0.033,-18.49872 -4.53718,-1.98381 -9.19055,-1.2448 -14.08403,2.2367 -7.51898,5.34943 -8.35617,12.75752 -1.95628,17.31078 5.15014,3.6641 10.27743,3.32818 16.00733,-1.04876 z m -48.76223,-18.37202 c 4.47929,-9.13762 11.01169,-14.13023 23.85408,-18.23128 l 3.42874,-1.09493 -8.26961,-3.38216 c -9.46012,-3.86905 -14.95881,-8.67403 -19.03128,-16.63028 -1.49064,-2.9122 -2.97073,-5.29059 -3.28909,-5.28531 -0.31836,0.005 -2.05995,2.8142 -3.87018,6.24203 -3.94273,7.46587 -8.26029,11.20705 -18.02405,15.61787 l -7.30961,3.30215 6.34765,2.45712 c 9.15715,3.54466 15.00688,8.44558 18.91944,15.85079 1.84685,3.49546 3.65276,6.36722 4.01314,6.3817 0.36037,0.0145 1.81422,-2.33799 3.23077,-5.2277 z m -186.02664,33.82113 c 4.053,-3.19656 4.80746,-4.43067 5.23599,-8.56487 0.65838,-6.35173 -2.25615,-10.88149 -8.91787,-13.86009 -4.71134,-2.10653 -6.25825,-2.22678 -28.64513,-2.22678 -26.32625,0 -29.25978,0.53977 -34.49926,6.34791 -5.40333,5.98977 -3.13823,16.20178 4.46287,20.12047 3.3952,1.75038 5.96906,1.91105 30.66717,1.9144 l 26.96094,0.004 z M 364.95197,739.45213 c 1.53648,-1.22047 4.02279,-4.48917 5.52514,-7.26377 3.38672,-6.25483 10.87619,-12.45639 19.23803,-15.92981 5.52481,-2.29496 7.74577,-2.6391 16.78638,-2.60112 8.13219,0.0342 11.61844,0.50716 15.88304,2.1549 8.07761,3.12099 15.61621,9.51994 20.11594,17.07488 4.53456,7.61342 8.72455,10.15519 15.26179,9.25822 4.51402,-0.61936 7.8225,-2.78994 10.21488,-6.7016 2.46507,-4.03054 1.99082,-6.74382 -2.5077,-14.34673 -10.39571,-17.56975 -30.94985,-28.95861 -54.57817,-30.24126 -12.46786,-0.67681 -21.80024,0.92998 -33.91067,5.83853 -12.68987,5.14339 -24.51128,14.78501 -29.91711,24.40055 -4.04218,7.18996 -4.53826,11.23911 -1.90458,15.54534 3.66403,5.99088 13.95105,7.45229 19.79303,2.81187 z m -61.1536,-209.43049 c -1.09167,-0.53805 -4.41595,-3.64961 -7.38729,-6.91458 -9.28403,-10.20143 -6.16669,-9.65892 -55.52618,-9.66313 -32.52719,-0.003 -43.38178,-0.30006 -44.88473,-1.22926 -1.83556,-1.13486 -1.64226,-1.96347 2.61105,-11.19146 18.29877,-39.70106 31.37626,-59.11329 50.99717,-75.7002 20.47447,-17.3085 42.4248,-27.5751 72.58586,-33.94986 7.32326,-1.54782 29.54626,-1.69285 304.26678,-1.98566 261.2151,-0.27841 297.80825,-0.13833 308.52215,1.1811 40.23334,4.95478 74.89432,23.21787 96.73312,50.96928 7.6659,9.74125 20.035,31.30571 28.8303,50.26283 7.6239,16.43256 8.5628,19.52852 6.291,20.7448 -0.8883,0.47563 -20.8906,0.87318 -44.4494,0.88344 -49.453,0.0215 -46.13252,-0.57878 -56.09652,10.14153 -3.22486,3.46963 -6.68204,6.57404 -7.68264,6.8987 -3.26868,1.06053 -652.65137,0.61672 -654.81067,-0.44753 z"
         id="path1"
         sodipodi:nodetypes="sssssscssscsssssscsssscccssscsssscssscssssssscssscccsssssscssssscsssssssssssssssssssssssssssssssssscsscsscssssssssssscssssssssssssssssscsssssssssssss" /><g
         inkscape:label="Layer 1"
         id="layer1"
         transform="matrix(0.89071773,-0.40590089,0.40590089,0.89071773,17.363366,-62.483514)"
         style="fill:#008000"><path
           style="color:#000000;display:inline;overflow:visible;visibility:visible;fill:#008000;fill-opacity:1;fill-rule:nonzero;stroke:none;stroke-width:0.531496;marker:none;enable-background:accumulate"
           d="m 362.46655,399.37379 c -80.4519,0.30312 -160.7693,30.42522 -222.3125,90.28125 l 55.9062,55.28125 c 92.2564,-89.61065 240.7455,-90.14152 333.6562,-1.15625 l 55.7813,-55.81255 C 523.48725,428.577 442.91835,399.07062 362.46655,399.37374 Z m -166.4063,145.5625 -0.125,0.0937 z"
           id="path4391"
           inkscape:connector-curvature="0"
           sodipodi:nodetypes="cccccccccc" /><path
           style="color:#000000;display:inline;overflow:visible;visibility:visible;fill:#008000;fill-opacity:1;fill-rule:nonzero;stroke:none;stroke-width:0.531496;marker:none;enable-background:accumulate"
           d="m 362.37275,281.3738 c -110.9452,0.41801 -221.724,41.957 -306.593707,124.49999 l 55.468707,54.84375 c 138.9415,-134.55514 362.2624,-135.23852 502.0313,-1.375 l 56.6562,-55.78125 C 584.42125,321.6603 473.31795,280.95579 362.37275,281.3738 Z m -251.125,179.34374 -0.5625,0.53125 z"
           id="path4395"
           inkscape:connector-curvature="0"
           sodipodi:nodetypes="sccccsccc" /><path
           style="color:#000000;display:inline;overflow:visible;visibility:visible;fill:#008000;fill-opacity:1;fill-rule:nonzero;stroke:none;stroke-width:0.531496;marker:none;enable-background:accumulate"
           d="m 362.34155,516.87379 c -50.088,0.18872 -100.1218,18.95343 -138.4375,56.21875 l 53.4375,52.8125 c 47.1813,-45.82127 123.1117,-46.06831 170.625,-0.5625 l 53.2192,-53.3125 c -38.6066,-36.97548 -88.7558,-55.34497 -138.8437,-55.15625 z m -85,109.03125 -0.063,0.0625 z"
           id="path4381"
           inkscape:connector-curvature="0"
           sodipodi:nodetypes="cccccccccc" /><path
           sodipodi:type="arc"
           style="color:#000000;display:inline;overflow:visible;visibility:visible;fill:#008000;fill-opacity:1;fill-rule:nonzero;stroke:none;stroke-width:0.531496;marker:none;enable-background:accumulate"
           id="path4411"
           sodipodi:cx="836.5"
           sodipodi:cy="578.86218"
           sodipodi:rx="78.5"
           sodipodi:ry="78.5"
           d="m 780.99212,634.37006 a 78.5,78.5 0 0 1 -0.0574,-110.95833 78.5,78.5 0 0 1 110.95822,-0.17211 78.5,78.5 0 0 1 0.28684,110.95798 78.5,78.5 0 0 1 -110.95762,0.40159 L 836.5,578.86218 Z"
           sodipodi:start="2.3561945"
           sodipodi:end="2.3520582"
           transform="translate(-473.54519,131.70585)"
           sodipodi:arc-type="slice" /></g><path
         style="fill:#ff0000;stroke:#008000;stroke-width:56.5024;stroke-linecap:square;stroke-dasharray:none;stroke-opacity:1;paint-order:markers stroke fill"
         d="m 782.14311,883.48723 h -135.0687 v 221.68657 c -0.90193,19.0739 -30.39573,19.7392 -31.82221,0 V 883.48723 c -29.9677,0.16789 -132.01224,0 -132.01224,0 -13.72622,277.25247 29.84885,337.15207 153.04251,336.71647 127.73109,-0.4516 159.51166,-39.8347 145.86064,-336.71647 z"
         id="path2"
         sodipodi:nodetypes="ccccccsc" /></g></g></svg>
